<?xml version="1.0" encoding="utf-8"?>
<!-- Generator: Adobe Illustrator 18.0.0, SVG Export Plug-In . SVG Version: 6.00 Build 0)  -->
<!DOCTYPE svg PUBLIC "-//W3C//DTD SVG 1.1 Tiny//EN" "http://www.w3.org/Graphics/SVG/1.1/DTD/svg11-tiny.dtd">
<svg version="1.1" baseProfile="tiny" id="圖層_1"
	 xmlns="http://www.w3.org/2000/svg" xmlns:xlink="http://www.w3.org/1999/xlink" x="0px" y="0px" viewBox="0 0 76 64"
	 xml:space="preserve">
<g display="none">
	<path display="inline" fill="#F7B90B" d="M69.7,10.9c-3.2,0-5.7,2.6-5.7,5.7c0,1.5,0.6,2.9,1.6,4L53.8,32L41.7,12.7
		c1.9-1.2,3.2-3.4,3.2-5.8C44.9,3.1,41.8,0,38,0c-3.8,0-6.9,3.1-6.9,6.9c0,2.4,1.3,4.6,3.2,5.8L22.2,32L10.4,20.6c1-1,1.6-2.4,1.6-4
		c0-3.2-2.6-5.7-5.7-5.7s-5.7,2.6-5.7,5.7c0,3.2,2.6,5.7,5.7,5.7c0.3,0,0.7,0,1-0.1l5.4,26.4h50.5l5.4-26.4c0.3,0.1,0.7,0.1,1,0.1
		c3.2,0,5.7-2.6,5.7-5.7C75.4,13.5,72.9,10.9,69.7,10.9z"/>
	<polygon display="inline" fill="#F7B90B" points="13.4,51.8 10.4,64 65.6,64 62.6,51.8 	"/>
</g>
<g display="none">
	<path display="inline" fill="#9FA0A0" d="M69.7,10.9c-3.2,0-5.7,2.6-5.7,5.7c0,1.5,0.6,2.9,1.6,4L53.8,32L41.7,12.7
		c1.9-1.2,3.2-3.4,3.2-5.8C44.9,3.1,41.8,0,38,0c-3.8,0-6.9,3.1-6.9,6.9c0,2.4,1.3,4.6,3.2,5.8L22.2,32L10.4,20.6c1-1,1.6-2.4,1.6-4
		c0-3.2-2.6-5.7-5.7-5.7s-5.7,2.6-5.7,5.7c0,3.2,2.6,5.7,5.7,5.7c0.3,0,0.7,0,1-0.1l5.4,26.4h50.5l5.4-26.4c0.3,0.1,0.7,0.1,1,0.1
		c3.2,0,5.7-2.6,5.7-5.7C75.4,13.5,72.9,10.9,69.7,10.9z"/>
	<polygon display="inline" fill="#9FA0A0" points="13.4,51.8 10.4,64 65.6,64 62.6,51.8 	"/>
</g>
<g>
	<path fill="#C9A063" d="M69.7,10.9c-3.2,0-5.7,2.6-5.7,5.7c0,1.5,0.6,2.9,1.6,4L53.8,32L41.7,12.7c1.9-1.2,3.2-3.4,3.2-5.8
		C44.9,3.1,41.8,0,38,0c-3.8,0-6.9,3.1-6.9,6.9c0,2.4,1.3,4.6,3.2,5.8L22.2,32L10.4,20.6c1-1,1.6-2.4,1.6-4c0-3.2-2.6-5.7-5.7-5.7
		s-5.7,2.6-5.7,5.7c0,3.2,2.6,5.7,5.7,5.7c0.3,0,0.7,0,1-0.1l5.4,26.4h50.5l5.4-26.4c0.3,0.1,0.7,0.1,1,0.1c3.2,0,5.7-2.6,5.7-5.7
		C75.4,13.5,72.9,10.9,69.7,10.9z"/>
	<polygon fill="#C9A063" points="13.4,51.8 10.4,64 65.6,64 62.6,51.8 	"/>
</g>
</svg>
